<?xml version="1.0" standalone="no"?><!DOCTYPE svg PUBLIC "-//W3C//DTD SVG 1.1//EN" "http://www.w3.org/Graphics/SVG/1.1/DTD/svg11.dtd"><svg t="1574851989198" class="icon" viewBox="0 0 1086 1024" version="1.1" xmlns="http://www.w3.org/2000/svg" p-id="2952" xmlns:xlink="http://www.w3.org/1999/xlink" width="212.109375" height="200"><defs><style type="text/css"></style></defs><path fill="rgba(4, 181, 169, 1.0)" d="M1062.718913 633.194518l-150.118931-93.048924-345.521673 212.151547a46.524462 46.524462 0 0 1-49.005766 0L172.55087 541.076083 22.431939 633.194518a47.454951 47.454951 0 0 0 0 80.642401l496.26093 302.719167a46.524462 46.524462 0 0 0 49.005767 0l496.260929-302.719167a47.454951 47.454951 0 0 0-1.240652-80.642401z" p-id="2953"></path><path d="M22.431939 390.646989l496.26093 303.02933a47.765114 47.765114 0 0 0 49.005767 0l496.260929-303.02933a47.454951 47.454951 0 0 0 0-80.642401L567.078309 6.975258a46.524462 46.524462 0 0 0-49.005766 0L22.431939 310.624914a47.454951 47.454951 0 0 0 0 80.022075z m345.211509-119.102623l87.465989-106.385937a31.016308 31.016308 0 0 1 48.695604 40.011037l-45.28381 54.898866h234.793452a31.016308 31.016308 0 0 1 0 62.032616h-301.478514a31.016308 31.016308 0 0 1-24.192721-51.487072z m24.192721 101.113164h301.478514a31.016308 31.016308 0 0 1 28.224841 17.989459 31.016308 31.016308 0 0 1-4.03212 33.497612L630.041415 527.73907a31.016308 31.016308 0 0 1-44.353321 4.342284 31.016308 31.016308 0 0 1-4.342283-44.353321L626.629621 434.690146h-234.793452a31.016308 31.016308 0 0 1 0-62.032616z" p-id="2954"></path></svg>