<?xml version="1.0" encoding="utf-8"?>
<!-- Generator: Adobe Illustrator 16.0.0, SVG Export Plug-In . SVG Version: 6.00 Build 0)  -->
<!DOCTYPE svg PUBLIC "-//W3C//DTD SVG 1.1//EN" "http://www.w3.org/Graphics/SVG/1.1/DTD/svg11.dtd">
<svg version="1.1" id="图层_1" xmlns="http://www.w3.org/2000/svg" xmlns:xlink="http://www.w3.org/1999/xlink" x="0px" y="0px"
	 width="3840px" height="3840px" viewBox="0 0 3840 3840" enable-background="new 0 0 3840 3840" xml:space="preserve">
<g>
	<g>
		<defs>
			<rect id="SVGID_1_" x="1579" y="1553" width="681.84" height="734.88"/>
		</defs>
		<clipPath id="SVGID_2_">
			<use xlink:href="#SVGID_1_"  overflow="visible"/>
		</clipPath>
		<path clip-path="url(#SVGID_2_)" fill="#FFFFFF" d="M1920.195,2286.92c-188.004,0-341.195-152.782-341.195-341.196v-332.597
			c0-32.766,26.625-59.391,59.391-59.391h563.203c32.766,0,59.391,26.625,59.391,59.391v333.007
			C2261.395,2133.728,2108.203,2286.92,1920.195,2286.92L1920.195,2286.92z M1920.195,2286.92"/>
	</g>
	<path d="M2134.828,1909.267"/>
	<path fill="#161616" d="M2202,1561.927h-563.199c-28.262,0-51.199,22.938-51.199,51.2v333.007
		c0,183.09,149.914,333.004,333.003,333.004c183.094,0,333.004-149.914,333.004-333.004v-333.007
		C2253.203,1584.865,2229.855,1561.927,2202,1561.927z M2091.41,1889.607c-0.41,2.051-0.82,3.688-1.23,5.324
		c-0.41,1.641-1.227,3.278-2.457,4.918c-0.41,0.817-0.41,2.047-1.227,2.867l-152.781,205.618
		c-6.965,9.011-19.254,12.289-29.903,7.781c-0.82-0.406-1.636-1.228-2.867-1.638c-0.82-0.409-2.047-0.409-2.867-1.229
		c-0.41-0.407-0.82-1.228-1.23-1.637c-1.637-1.638-3.684-3.688-4.914-5.734c-3.278-4.098-4.914-9.012-4.914-13.926v-179.406
		h-127.797c-0.411,0-0.817-0.411-1.227-0.411c-2.457,0-4.918-0.406-7.375-1.226c-1.226-0.41-2.457-1.231-3.683-1.642
		c-0.821-0.406-2.051-0.406-2.868-1.226c-0.41-0.41-0.82-1.231-1.23-1.641c-1.637-1.227-2.867-2.867-4.098-4.504
		c-0.406-0.82-1.226-1.637-1.637-2.457c-1.23-2.047-2.046-4.914-2.457-7.375l-0.41-1.226c-0.41-1.231-0.82-2.457-0.82-3.688
		c0-2.047,0.82-3.687,1.23-5.734v-0.41c1.227-4.504,3.688-9.012,6.961-12.29l149.914-202.75c2.868-3.277,6.965-6.144,11.063-7.781
		h0.406c2.867-0.82,5.735-1.64,9.012-1.64h0.82c0.41,0,0.821,0.41,1.23,0.41c3.684,0.41,7.371,1.23,10.648,3.277
		c0.82,0.41,2.047,0.41,2.867,1.231c0.41,0.406,0.82,1.226,1.227,1.636c1.641,1.231,2.867,2.867,4.098,4.504
		c0.41,0.82,1.23,1.641,1.637,2.461c1.23,2.047,2.051,4.914,2.461,7.371l0.406,1.231c0.41,1.226,0.82,2.457,0.82,3.683v178.996
		h127.797c1.227,0,2.047,0.411,2.867,0.411c1.637,0.41,3.684,0.82,5.324,1.226c1.227,0.41,2.867,1.231,4.094,2.051
		c0.82,0.41,2.051,0.41,2.867,1.226c0.41,0.411,0.82,1.231,1.23,1.641c1.23,0.816,2.457,2.047,3.277,3.277
		c0.82,1.637,2.047,2.868,2.867,4.504c0.82,1.231,1.227,2.457,1.637,4.098c0.82,1.637,1.23,3.684,1.23,5.324
		c0,0.41,0.41,0.82,0.41,1.637C2091.82,1887.97,2091.41,1888.791,2091.41,1889.607z"/>
</g>
</svg>
