<?xml version="1.0" encoding="utf-8"?>
<!-- Generator: Adobe Illustrator 16.0.0, SVG Export Plug-In . SVG Version: 6.00 Build 0)  -->
<!DOCTYPE svg PUBLIC "-//W3C//DTD SVG 1.1//EN" "http://www.w3.org/Graphics/SVG/1.1/DTD/svg11.dtd">
<svg version="1.1" id="图层_1" xmlns="http://www.w3.org/2000/svg" xmlns:xlink="http://www.w3.org/1999/xlink" x="0px" y="0px"
	 width="800px" height="800px" viewBox="0 0 800 800" enable-background="new 0 0 800 800" xml:space="preserve">
<path fill="#FFFFFF" d="M0,0v800h800V0H0z M104.2,708.193L29.847,668.99V218.997l74.354,91.288V708.193z M243.816,770.97
	l-74.352-28.365V381.958l74.352,82.238V770.97z M505.703,682.864L42.973,128.265l73.444-39.9L505.703,572.84V682.864z
	 M505.703,482.541L160.755,66.127l70.754-37.097l274.193,342.366V482.541z M640.364,737.379l-74.354,33.591V29.031l74.354,36.594
	V737.379z M771,667.469l-72.394,39.204V96.331L771,135.534V667.469z"/>
</svg>
